REM DIRINDEX 1\6,1\2\7,1\2\8,1\2\9,1\3\10,1\3\11,1\4\12,1\4\13,1\4\14,1\5\15,1\5\16,1\5\17
REM DIRNAME folder01,folder02,folder03,folder04,folder05,folder06,folder07,folder08,folder09,folder10,folder11,folder12,folder13,folder14,folder15,folder16,folder17
TITLE ""
FILE "P2Q_t2_0565-0582.mp3" MP3
  TRACK 01 AUDIO
    TITLE "7:cjc040_5525"
    INDEX 01 00:00:00
  TRACK 02 AUDIO
    TITLE "0:"
    INDEX 01 00:01:07
  TRACK 03 AUDIO
    TITLE "8:cjc040_5526"
    INDEX 01 00:01:69
  TRACK 04 AUDIO
    TITLE "0:"
    INDEX 01 00:04:09
  TRACK 05 AUDIO
    TITLE "9:cjc040_5527"
    INDEX 01 00:04:64
  TRACK 06 AUDIO
    TITLE "0:"
    INDEX 01 00:06:04
  TRACK 07 AUDIO
    TITLE "7:cjc040_5528"
    INDEX 01 00:07:62
  TRACK 08 AUDIO
    TITLE "0:"
    INDEX 01 00:09:02
  TRACK 09 AUDIO
    TITLE "8:cjc040_5529"
    INDEX 01 00:09:51
  TRACK 10 AUDIO
    TITLE "0:"
    INDEX 01 00:10:55
  TRACK 11 AUDIO
    TITLE "9:cjc040_5530"
    INDEX 01 00:11:31
  TRACK 12 AUDIO
    TITLE "0:"
    INDEX 01 00:12:48
  TRACK 13 AUDIO
    TITLE "7:cjc040_5531"
    INDEX 01 00:14:31
  TRACK 14 AUDIO
    TITLE "0:"
    INDEX 01 00:15:64
  TRACK 15 AUDIO
    TITLE "8:cjc040_5532"
    INDEX 01 00:16:40
  TRACK 16 AUDIO
    TITLE "0:"
    INDEX 01 00:18:70
  TRACK 17 AUDIO
    TITLE "9:cjc040_5533"
    INDEX 01 00:19:52
  TRACK 18 AUDIO
    TITLE "0:"
    INDEX 01 00:21:15
  TRACK 19 AUDIO
    TITLE "7:cjc040_5534"
    INDEX 01 00:22:70
  TRACK 20 AUDIO
    TITLE "0:"
    INDEX 01 00:24:00
  TRACK 21 AUDIO
    TITLE "8:cjc040_5535"
    INDEX 01 00:24:51
  TRACK 22 AUDIO
    TITLE "0:"
    INDEX 01 00:25:66
  TRACK 23 AUDIO
    TITLE "9:cjc040_5536"
    INDEX 01 00:26:42
  TRACK 24 AUDIO
    TITLE "0:"
    INDEX 01 00:27:49
  TRACK 25 AUDIO
    TITLE "7:cjc040_5537"
    INDEX 01 00:29:33
  TRACK 26 AUDIO
    TITLE "0:"
    INDEX 01 00:30:67
  TRACK 27 AUDIO
    TITLE "8:cjc040_5538"
    INDEX 01 00:31:53
  TRACK 28 AUDIO
    TITLE "0:"
    INDEX 01 00:32:74
  TRACK 29 AUDIO
    TITLE "9:cjc040_5539"
    INDEX 01 00:33:50
  TRACK 30 AUDIO
    TITLE "0:"
    INDEX 01 00:35:06
  TRACK 31 AUDIO
    TITLE "7:cjc040_5540"
    INDEX 01 00:36:70
  TRACK 32 AUDIO
    TITLE "0:"
    INDEX 01 00:38:12
  TRACK 33 AUDIO
    TITLE "8:cjc040_5541"
    INDEX 01 00:38:71
  TRACK 34 AUDIO
    TITLE "0:"
    INDEX 01 00:40:66
  TRACK 35 AUDIO
    TITLE "9:cjc040_5542"
    INDEX 01 00:41:49
  TRACK 36 AUDIO
    TITLE "0:"
    INDEX 01 00:42:70
  TRACK 37 AUDIO
    TITLE "7:cjc040_5543"
    INDEX 01 00:44:58
  TRACK 38 AUDIO
    TITLE "0:"
    INDEX 01 00:45:69
  TRACK 39 AUDIO
    TITLE "8:cjc040_5544"
    INDEX 01 00:46:51
  TRACK 40 AUDIO
    TITLE "0:"
    INDEX 01 00:50:11
  TRACK 41 AUDIO
    TITLE "9:cjc040_5545"
    INDEX 01 00:50:64
  TRACK 42 AUDIO
    TITLE "0:"
    INDEX 01 00:52:02
  TRACK 43 AUDIO
    TITLE "7:cjc040_5546"
    INDEX 01 00:53:58
  TRACK 44 AUDIO
    TITLE "0:"
    INDEX 01 00:54:60
  TRACK 45 AUDIO
    TITLE "8:cjc040_5547"
    INDEX 01 00:55:42
  TRACK 46 AUDIO
    TITLE "0:"
    INDEX 01 00:56:43
  TRACK 47 AUDIO
    TITLE "9:cjc040_5548"
    INDEX 01 00:57:23
  TRACK 48 AUDIO
    TITLE "0:"
    INDEX 01 00:58:26
  TRACK 49 AUDIO
    TITLE "7:cjc040_5549"
    INDEX 01 01:00:06
  TRACK 50 AUDIO
    TITLE "0:"
    INDEX 01 01:01:23
  TRACK 51 AUDIO
    TITLE "8:cjc040_5550"
    INDEX 01 01:01:74
  TRACK 52 AUDIO
    TITLE "0:"
    INDEX 01 01:05:44
  TRACK 53 AUDIO
    TITLE "9:cjc040_5551"
    INDEX 01 01:06:22
  TRACK 54 AUDIO
    TITLE "0:"
    INDEX 01 01:07:41
  TRACK 55 AUDIO
    TITLE "7:cjc040_5552"
    INDEX 01 01:09:22
  TRACK 56 AUDIO
    TITLE "0:"
    INDEX 01 01:10:41
  TRACK 57 AUDIO
    TITLE "8:cjc040_5553"
    INDEX 01 01:11:21
  TRACK 58 AUDIO
    TITLE "0:"
    INDEX 01 01:13:38
  TRACK 59 AUDIO
    TITLE "9:cjc040_5554"
    INDEX 01 01:14:17
  TRACK 60 AUDIO
    TITLE "0:"
    INDEX 01 01:15:33
  TRACK 61 AUDIO
    TITLE "7:cjc040_5555"
    INDEX 01 01:17:18
  TRACK 62 AUDIO
    TITLE "0:"
    INDEX 01 01:18:37
  TRACK 63 AUDIO
    TITLE "8:cjc040_5556"
    INDEX 01 01:19:17
  TRACK 64 AUDIO
    TITLE "0:"
    INDEX 01 01:23:01
  TRACK 65 AUDIO
    TITLE "9:cjc040_5557"
    INDEX 01 01:23:62
  TRACK 66 AUDIO
    TITLE "0:"
    INDEX 01 01:25:09
  TRACK 67 AUDIO
    TITLE "7:cjc040_5558"
    INDEX 01 01:26:68
  TRACK 68 AUDIO
    TITLE "0:"
    INDEX 01 01:28:06
  TRACK 69 AUDIO
    TITLE "8:cjc040_5559"
    INDEX 01 01:28:57
  TRACK 70 AUDIO
    TITLE "0:"
    INDEX 01 01:30:67
  TRACK 71 AUDIO
    TITLE "9:cjc040_5560"
    INDEX 01 01:31:47
  TRACK 72 AUDIO
    TITLE "0:"
    INDEX 01 01:32:64
  TRACK 73 AUDIO
    TITLE "7:cjc040_5561"
    INDEX 01 01:34:50
  TRACK 74 AUDIO
    TITLE "0:"
    INDEX 01 01:35:55
  TRACK 75 AUDIO
    TITLE "8:cjc040_5562"
    INDEX 01 01:36:37
  TRACK 76 AUDIO
    TITLE "0:"
    INDEX 01 01:37:34
  TRACK 77 AUDIO
    TITLE "9:cjc040_5563"
    INDEX 01 01:38:12
  TRACK 78 AUDIO
    TITLE "0:"
    INDEX 01 01:39:21
  TRACK 79 AUDIO
    TITLE "7:cjc040_5564"
    INDEX 01 01:41:01
  TRACK 80 AUDIO
    TITLE "0:"
    INDEX 01 01:42:02
  TRACK 81 AUDIO
    TITLE "8:cjc040_5565"
    INDEX 01 01:42:57
  TRACK 82 AUDIO
    TITLE "0:"
    INDEX 01 01:46:00
  TRACK 83 AUDIO
    TITLE "9:cjc040_5566"
    INDEX 01 01:46:53
  TRACK 84 AUDIO
    TITLE "0:"
    INDEX 01 01:47:58
  TRACK 85 AUDIO
    TITLE "7:cjc040_5567"
    INDEX 01 01:49:43
  TRACK 86 AUDIO
    TITLE "0:"
    INDEX 01 01:50:60
  TRACK 87 AUDIO
    TITLE "8:cjc040_5568"
    INDEX 01 01:51:40
  TRACK 88 AUDIO
    TITLE "0:"
    INDEX 01 01:52:55
  TRACK 89 AUDIO
    TITLE "9:cjc040_5569"
    INDEX 01 01:53:31
  TRACK 90 AUDIO
    TITLE "0:"
    INDEX 01 01:54:46
  TRACK 91 AUDIO
    TITLE "7:cjc040_5570"
    INDEX 01 01:56:28
  TRACK 92 AUDIO
    TITLE "0:"
    INDEX 01 01:57:37
  TRACK 93 AUDIO
    TITLE "8:cjc040_5571"
    INDEX 01 01:58:19
  TRACK 94 AUDIO
    TITLE "0:"
    INDEX 01 02:00:25
  TRACK 95 AUDIO
    TITLE "9:cjc040_5572"
    INDEX 01 02:01:07
  TRACK 96 AUDIO
    TITLE "0:"
    INDEX 01 02:02:17
  TRACK 97 AUDIO
    TITLE "7:cjc040_5573"
    INDEX 01 02:04:00
  TRACK 98 AUDIO
    TITLE "0:"
    INDEX 01 02:05:25
  TRACK 99 AUDIO
    TITLE "8:cjc040_5574"
    INDEX 01 02:06:05
  TRACK 100 AUDIO
    TITLE "0:"
    INDEX 01 02:08:31
  TRACK 101 AUDIO
    TITLE "9:cjc040_5575"
    INDEX 01 02:09:19
  TRACK 102 AUDIO
    TITLE "0:"
    INDEX 01 02:10:47
  TRACK 103 AUDIO
    TITLE "7:cjc040_5576"
    INDEX 01 02:12:33
  TRACK 104 AUDIO
    TITLE "0:"
    INDEX 01 02:13:54
  TRACK 105 AUDIO
    TITLE "8:cjc040_5577"
    INDEX 01 02:14:33
  TRACK 106 AUDIO
    TITLE "0:"
    INDEX 01 02:16:44
  TRACK 107 AUDIO
    TITLE "9:cjc040_5578"
    INDEX 01 02:17:26
  TRACK 108 AUDIO
    TITLE "0:"
    INDEX 01 02:18:41
